Patient4_TMGait_0pt6_01_left_14_GRF.mot
version=1
nRows=32
nColumns=19
inDegrees=no
endheader
time	F1x	F1y	F1z	M1x	M1y	M1z	F2x	F2y	F2z	M2x	M2y	M2z	EC1x	EC1y	EC1z	EC2x	EC2y	EC2z
17.01	18.0739	7.7089	-7.9136	0.08217	5.3906	18.0448	-19.9905	758.0453	-49.4182	310.8066	49.027	678.4521	-0.0592	0.0182	-0.0073	-0.0462	0.0165	0.9585
17.0221	12.127	5.6581	-5.2721	-0.14165	3.432	12.5291	-21.0751	757.5244	-48.6393	312.0248	49.3502	675.5868	-0.0592	0.0182	-0.0073	-0.0462	0.0165	0.9585
17.0343	7.0813	4.0178	-3.0483	-0.35456	1.8338	7.9722	-21.8233	759.7681	-47.7929	314.0649	49.3265	674.4459	-0.0592	0.0182	-0.0073	-0.0462	0.0165	0.9585
17.0464	3.2249	2.8602	-1.3572	-0.54199	0.64626	4.6172	-22.0703	764.4316	-47.0194	316.6787	48.9748	674.8236	-0.0592	0.0182	-0.0073	-0.0462	0.0165	0.9585
17.0586	0.54858	2.1295	-0.19258	-0.69081	-0.15353	2.3875	-21.7249	770.537	-46.3827	319.436	48.3103	676.0063	-0.0592	0.0182	-0.0073	-0.0462	0.0165	0.9585
17.0707	-1.1281	1.749	0.52045	-0.80083	-0.63317	1.1054	-20.7018	776.8188	-45.9653	321.8365	47.4029	677.0235	-0.0592	0.0182	-0.0073	-0.0462	0.0165	0.9585
17.0829	-2.0326	1.6039	0.89024	-0.86962	-0.8745	0.50537	-19.0009	781.9913	-45.753	323.4038	46.2749	676.8916	-0.0592	0.0182	-0.0073	-0.0462	0.0165	0.9585
17.095	-2.4255	1.5718	1.0159	-0.8941	-0.95474	0.32918	-16.6507	784.9787	-45.7358	323.7623	44.9704	674.7862	-0.0592	0.0182	-0.0073	-0.0462	0.0165	0.9585
17.1071	-2.5046	1.5269	0.99584	-0.86446	-0.94536	0.32093	-13.7528	785.0736	-45.8496	322.6945	43.5097	670.1984	-0.0592	0.0182	-0.0073	-0.0462	0.0165	0.9585
17.1193	-2.4388	1.356	0.89443	-0.76696	-0.8963	0.28758	-10.47	781.9621	-46.0386	320.1563	41.9313	662.929	-0.0592	0.0182	-0.0073	-0.0462	0.0165	0.9585
17.1314	-2.325	0.94713	0.76915	-0.57862	-0.8513	0.045081	-6.9735	775.8857	-46.248	316.3225	40.2731	653.2528	-0.0592	0.0182	-0.0073	-0.0462	0.0165	0.9585
17.1436	-2.2226	0.21684	0.64374	-0.27656	-0.8224	-0.52723	-3.4664	767.4815	-46.4671	311.5288	38.6132	641.7512	-0.0592	0.0182	-0.0073	-0.0462	0.0165	0.9585
17.1557	-2.1275	-0.90508	0.54068	0.1594	-0.8084	-1.5254	-0.16166	757.5823	-46.7393	306.1828	37.0676	629.1319	-0.0592	0.0182	-0.0073	-0.0462	0.0165	0.9585
17.1679	-2.0075	-2.4213	0.45298	0.72791	-0.77689	-2.9581	2.8066	747.1288	-47.1311	300.7108	35.7419	616.1938	-0.0592	0.0182	-0.0073	-0.0462	0.0165	0.9585
17.18	-1.7719	-4.2419	0.37516	1.3971	-0.68635	-4.7388	5.3633	736.9499	-47.7234	295.4836	34.7275	603.607	-0.0592	0.0182	-0.0073	-0.0462	0.0165	0.9585
17.1921	-1.2996	-6.1012	0.28585	2.0747	-0.47079	-6.5943	7.51	727.7657	-48.5613	290.8056	34.0641	591.9542	-0.0592	0.0182	-0.0073	-0.0462	0.0165	0.9585
17.2043	-0.44904	-7.5289	0.18163	2.592	-0.074984	-8.0521	9.3736	720.0866	-49.683	286.8861	33.7441	581.6144	-0.0592	0.0182	-0.0073	-0.0462	0.0165	0.9585
17.2164	0.93451	-7.7576	0.042432	2.6725	0.56951	-8.3331	11.1009	714.1852	-51.0752	283.8338	33.6945	572.7724	-0.0592	0.0182	-0.0073	-0.0462	0.0165	0.9585
17.2286	2.984	-5.689	-0.13788	1.9228	1.505	-6.3203	12.9232	710.1299	-52.7046	281.6703	33.8077	565.4364	-0.0592	0.0182	-0.0073	-0.0462	0.0165	0.9585
17.2407	5.7456	0.11232	-0.37237	-0.17323	2.753	-0.57038	15.0018	707.7898	-54.4709	280.3341	33.9435	559.4899	-0.0592	0.0182	-0.0073	-0.0462	0.0165	0.9585
17.2529	9.1092	11.3439	-0.63572	-4.2249	4.2445	10.6415	17.458	706.7742	-56.2202	279.6652	33.9494	554.621	-0.0592	0.0182	-0.0073	-0.0462	0.0165	0.9585
17.265	12.7243	29.7189	-0.88721	-10.8483	5.8058	29.0536	20.2955	706.4713	-57.7369	279.4112	33.6696	550.395	-0.0592	0.0182	-0.0073	-0.0462	0.0165	0.9585
17.2771	15.841	56.5651	-1.0361	-20.515	7.0769	56.0185	23.4483	705.9516	-58.7708	279.197	32.9569	546.1377	-0.0592	0.0182	-0.0073	-0.0462	0.0165	0.9585
17.2893	17.2285	92.1456	-0.94359	-33.3123	7.4789	91.8207	26.7506	703.9901	-59.0399	278.5291	31.6708	540.9949	-0.0592	0.0182	-0.0073	-0.0462	0.0165	0.9585
17.3014	15.4011	134.9999	-0.39621	-48.7105	6.2713	135.0329	30.023	699.1165	-58.305	276.8125	29.7159	533.9184	-0.0592	0.0182	-0.0073	-0.0462	0.0165	0.9585
17.3136	9.745	181.8662	0.8912	-65.5203	2.9481	182.3533	33.0646	689.7906	-56.3878	273.4182	27.0487	523.8269	-0.0592	0.0182	-0.0073	-0.0462	0.0165	0.9585
17.3257	1.5629	228.1399	3.4665	-82.0544	-2.5684	229.0358	35.701	674.5719	-53.2664	267.7539	23.7305	509.6817	-0.0592	0.0182	-0.0073	-0.0462	0.0165	0.9585
17.3379	-7.1406	269.9024	7.5206	-96.9004	-9.7139	270.818	37.8298	652.4438	-49.0791	259.3782	19.9103	490.7571	-0.0592	0.0182	-0.0073	-0.0462	0.0165	0.9585
17.35	-15.0403	305.9936	12.3155	-109.6753	-17.2502	306.2706	39.3807	622.9611	-44.1218	248.0714	15.8302	466.7266	-0.0592	0.0182	-0.0073	-0.0462	0.0165	0.9585
17.3621	-21.4149	337.5638	17.2784	-120.8326	-24.339	336.4418	40.3403	586.3097	-38.7682	233.868	11.7504	437.7218	-0.0592	0.0182	-0.0073	-0.0462	0.0165	0.9585
17.3743	-25.9633	366.5908	21.7854	-131.1301	-30.2511	363.3165	40.7233	543.2091	-33.3576	217.0235	7.8925	404.2728	-0.0592	0.0182	-0.0073	-0.0462	0.0165	0.9585
17.3864	-28.6507	394.902	25.5577	-141.2494	-34.7052	388.7616	40.456	494.6859	-28.0867	197.9375	4.3937	367.1221	-0.0592	0.0182	-0.0073	-0.0462	0.0165	0.9585
